<svg width="375" height="244" fill="none" xmlns="http://www.w3.org/2000/svg"><path d="m233.286 217.184-48.357-37.79-99.208 59.102 50.937-59.102-92.982 63.939 20.142-32.864-55.126 8.128 57.247-48.766-65.371-3.539 99.076-35.89-88.967-22.164 104.206-3.11-66.1-30.329 50.86 4.51L2.427 4.438 131.33 62.055 110.487.343l36.556 41.993 14.653-22.588 19.547 35.22 12.796-24.978 6.616 28.368 42.728-24.912-15.306 45.864 22.493-13.558-17.284 24.958 141.146-1.54-141.146 27.563 32.385 7.851-26.006 1.963 102.062 36.31-95.567-6.807 42.465 36.564-60.548-15.362 5.209 39.932Z" fill="#FBCE51"/></svg>