<svg width="351" height="351" fill="none" xmlns="http://www.w3.org/2000/svg"><g style="mix-blend-mode:overlay"><path d="m240.02 303.16-.18-.37.68-.47-1.88-3.76-.15 1.25-.86 3.71.08.21.7-.23.18.37-2.07 1.06-.18-.37.57-.4-2.32-4.71-.66.24-.18-.37 2.12-1.04.17.37-.6.38 1.9 3.82.14-1.16.88-3.8-.16-.27-.76.25-.17-.37 2.11-1.04.18.37-.61.4 2.32 4.7.65-.2.17.37-2.07 1.06ZM234.9 305.5c-.24.17-.4.26-.56.36-.16.1-.33.19-.48.24a2.9 2.9 0 0 1-1.6.35c-.45-.08-.75-.3-.95-.76-.17-.41-.2-.8-.06-1.17.15-.37.41-.67.75-.9-.47.2-.89.23-1.27.12-.38-.14-.63-.4-.8-.76-.27-.58-.28-1.04-.07-1.49.21-.45.68-.83 1.42-1.18.32-.15.62-.25.86-.28.24-.07.48-.1.62-.1.14-.01.24-.03.28-.02l.45 1.4-.37.18-.67-.91c-.31-.04-.66.05-1.12.25-.36.13-.56.35-.64.65-.08.3-.03.64.13 1.05.15.31.36.55.65.68.29.12.66.08 1.13-.11l.52-.23.2.42-.46.2c-.2.08-.38.22-.56.4-.15.19-.25.39-.3.6-.02.23 0 .51.11.77.14.36.36.56.62.62.25.07.54.01.9-.12.22-.13.42-.2.56-.36.13-.15.2-.26.23-.35l-.16-.78.48-.23.6 1.17c-.05.03-.22.12-.45.29ZM228.03 307.98l.68-.14.17.41-1.07.4c-.17.1-.41.17-.68.28-.25.11-.42.2-.53.27-.71.27-1.28.35-1.67.24-.38-.1-.68-.37-.83-.82a1.46 1.46 0 0 1-.04-1.06c.1-.35.35-.64.68-.83-.5.18-.94.25-1.31.1-.38-.14-.67-.4-.83-.86a1.6 1.6 0 0 1 .08-1.5c.27-.47.79-.88 1.66-1.2.2-.08.35-.14.55-.17.4-.13.66-.24.76-.26l1.02-.41.13.4-.64.33 1.87 4.82Zm-3.56-4.36c-.52.23-.86.46-1.03.78-.18.32-.13.66-.01 1.06.16.41.38.65.66.77.3.13.67.09 1.13-.1.52-.24.87-.33 1.03-.42l-.88-2.35c-.19 0-.44.11-.9.26Zm1.47 2.74-.41.17c-.36.13-.6.34-.72.63s-.12.61.06.98c.13.36.34.6.59.7.24.12.62.08 1.09-.11.2-.09.36-.18.57-.26l.16-.1-.83-2.2c-.1.07-.26.12-.5.2ZM221.34 311l-.86.32-3.8-4.87-.52.1-.12-.41 2.12-.72.12.4-.63.3.77 1.07 2.33-.8-.03-1.29-.72.13-.12-.4 1.91-.64.13.4-.48.24-.1 6.18Zm-.89-1.1.43.61-.06-.8-.07-2.81-2.03.7 1.73 2.3ZM214.76 306.8c.51.14.9.39 1.25.8.35.42.63.9.78 1.54.17.6.2 1.16.1 1.73-.11.56-.37 1-.74 1.36-.37.36-.82.65-1.37.83-.4.12-.93.2-1.53.23l-.28.02-.34-1.47.55-.18.52.97c.09.02.26.07.44.07.19 0 .43-.07.73-.13.34-.09.62-.29.83-.55.21-.27.36-.64.38-1.05a4.6 4.6 0 0 0-.79-2.73 2.4 2.4 0 0 0-.89-.8c-.33-.13-.73-.19-1.13-.07-.29.06-.5.19-.61.25-.11.06-.24.21-.32.33l-.1.9-.53.08-.14-1.19c.1-.02.26-.11.48-.24.17-.13.33-.23.54-.31.16-.1.41-.17.66-.24.48-.24 1-.28 1.5-.14ZM208.4 313.37c-.16.46-.42.9-.72 1.18-.36.32-.74.54-1.17.6-.54.14-1.04.1-1.45-.06a2.5 2.5 0 0 1-1.1-.85c-.31-.4-.55-.88-.66-1.5a4.8 4.8 0 0 1-.07-1.81c.1-.57.36-1 .7-1.38a2.5 2.5 0 0 1 1.24-.72 2.56 2.56 0 0 1 1.5.04c.47.17.8.44 1.12.8.3.4.55.88.66 1.5l1.31-.28-.55-2.4-.71.08-.08-.38 2.26-.55.08.4-.66.23 1.2 5.1.66-.06.08.39-2.2.51-.08-.39.66-.23-.52-2.2-1.32.33c0 .64-.05 1.18-.17 1.65Zm-.92.4c.19-.55.19-1.24-.02-2.17-.2-.79-.5-1.42-.9-1.8-.4-.38-.86-.55-1.44-.43-.54.13-.86.45-1.04.96-.18.5-.15 1.24.06 2.17.2.79.45 1.4.85 1.8.4.42.86.54 1.36.4.57-.07.93-.4 1.13-.94ZM198.82 313c-.25-.25-.63-.58-1.02-1-.28-.3-.45-.54-.6-.67-.15-.13-.26-.2-.35-.23l-.31-.04-.08-.39 1.01-.18c.14-.01.3.08.48.26.18.19.47.5.77.9.38.47.67.77.92 1.02.21.24.42.34.61.3l.53-.08-.42-2.37-.75.03-.08-.38 2.27-.4.07.42-.65.2.91 5.15h.7l.06.44-2.21.37-.05-.52.66-.23-.4-2.41-.73.13-1.27 2.69.7-.05.06.44-2.02.37-.07-.43.65-.2 1.38-2.75c-.23-.01-.5-.18-.77-.39ZM195.05 311.12c.45.21.78.53 1.02 1 .25.44.42 1 .53 1.62.11.63.05 1.2-.15 1.75a3 3 0 0 1-.83 1.25c-.4.3-.83.51-1.4.59-.87.13-1.6-.06-2.1-.57-.5-.5-.87-1.2-.97-2.19-.1-.66-.04-1.24.14-1.75.2-.54.48-.92.85-1.28.4-.3.87-.5 1.4-.6a2.62 2.62 0 0 1 1.51.18Zm.35 4.87c.24-.53.32-1.2.21-2.15a3.6 3.6 0 0 0-.72-1.94 1.37 1.37 0 0 0-1.37-.54c-.53.08-.92.34-1.15.88a3.97 3.97 0 0 0-.21 2.15c.1.85.34 1.47.73 1.9.35.4.8.62 1.37.54.5 0 .9-.3 1.14-.84ZM189.93 317.23l.67.05.03.42-1.13.1c-.18 0-.43.07-.71.1-.3.05-.48.05-.57.07-.76.07-1.34 0-1.69-.23a1.33 1.33 0 0 1-.6-1.03c-.03-.37.07-.76.24-1.04.16-.27.5-.5.9-.63a2 2 0 0 1-1.3-.25c-.36-.24-.53-.6-.56-1.03a1.8 1.8 0 0 1 .48-1.43c.38-.4 1-.65 1.93-.72.2-.04.38-.04.6-.02.43-.03.7-.04.8-.02l1.12-.11.03.42-.68.14.44 5.21Zm-2.25-5.15c-.56.04-.97.2-1.18.47-.25.25-.34.6-.28 1.03.03.42.18.73.4.89.24.15.63.25 1.1.2.56-.04.94-.07 1.1-.12l-.21-2.5a2.87 2.87 0 0 0-.93.03Zm.7 3.04-.47.06c-.38.03-.7.18-.85.41a1.5 1.5 0 0 0-.2.96c.03.37.13.68.36.83.24.16.58.25 1.06.19.2-.04.42-.02.62-.1l.2-.05-.2-2.35-.52.05ZM176.7 318.46l-.03-.42.73-.13-.16-5.23-.8-.07-.03-.42 2.35-.06.03.42-.71.08.14 5.28 2.68-.07-.14-5.27-.77-.07-.02-.42 2.35-.05.03.42-.67.1.16 5.22.7.1.03.42-5.87.17ZM174.71 312.51c.38.29.7.65.88 1.16.2.46.28 1.03.29 1.68-.03.63-.14 1.2-.4 1.68a2.76 2.76 0 0 1-2.47 1.5c-.87 0-1.52-.32-1.98-.85a3.71 3.71 0 0 1-.66-2.34c0-.64.15-1.24.42-1.72.26-.48.6-.9 1.04-1.14.43-.26.93-.4 1.48-.39.55.01 1.02.14 1.4.42Zm-.34 4.87c.31-.47.5-1.15.5-2.07 0-.83-.14-1.5-.42-2a1.42 1.42 0 0 0-1.27-.75c-.55 0-.98.24-1.29.71-.3.47-.5 1.2-.52 2.11 0 .87.1 1.5.43 2 .28.49.72.74 1.27.75.53-.09.95-.3 1.3-.75ZM167.72 314.27c.17-.79.36-1.33.64-1.71.15-.2.28-.34.44-.44.16-.1.36-.13.54-.13.27.03.45.03.58.06v.7c-.13-.04-.35-.06-.62-.08-.09-.02-.19 0-.3.06a.95.95 0 0 0-.23.2c-.5.66-.77 2-.9 4.04l-.04.68.96.16-.02.41-4.87-.3.01-.4.8-.07.35-5.23-.84-.13.02-.41 2.56.18-.01.41-.88.04-.35 5.23 1.72.1.06-.77c.13-.97.23-1.86.38-2.6ZM162.37 317.29l.68.18-.06.4-4.28-.46.03-1.33.5.04.14.82 2.09.29.26-2.37-1.38-.14-.19.69-.45-.03.2-1.92.45.03.03.74 1.37.18.26-2.5-2.39-.18-.54 1-.5-.22.4-1.46 4.64.51-.06.4h-.7l-.5 5.33ZM155.41 316.52l1.43.16.54-1.7.53.1-.46 2.22-5.2-.8.23-2.23.53.1.02 1.79 1.45.25.76-5.26-1.17-.26.07-.4 3.17.48-.06.4-1.08-.06-.76 5.21ZM149.4 312.39l.4.06c.15-.05.34-.23.5-.47.15-.23.41-.53.64-.88.23-.35.44-.62.59-.8.14-.2.25-.26.33-.24l1.14.21-.06.4-.34.05a.5.5 0 0 0-.32.19c-.12.1-.32.33-.53.6-.27.33-.48.6-.67.78-.2.22-.36.31-.56.4.36.19.61.44.76.75.14.31.18.7.1 1.13-.12.66-.42 1.08-.83 1.25a3.3 3.3 0 0 1-1.75.03l-.6-.16-.6-.16-1.18-.22.06-.4.72.05 1.01-5.14-.76-.25.06-.4 2.45.47-.06.4-.81-.08-.4 2.19.71.24Zm-1.14 2.9.64.18c.44.07.76.06 1.03-.1.28-.15.44-.43.53-.91.07-.44.03-.82-.17-1.1-.2-.28-.48-.45-.9-.56-.44-.08-.74-.16-.88-.15l-.5 2.53.25.11ZM143.49 314.25l1.43.29.68-1.66.55.15-.67 2.16-5.08-1.22.4-2.23.52.13-.16 1.8 1.42.38 1.2-5.19-1.14-.35.1-.39 3.15.76-.1.38-1.1-.16-1.2 5.15ZM138.08 307.2c.36.37.55.83.64 1.36.09.53.03 1.11-.15 1.75a3.23 3.23 0 0 1-2.2 2.26c-.55.13-1.04.09-1.6-.06a7.54 7.54 0 0 1-1.44-.62l-.25-.11.52-1.42.56.15-.1 1.07c.06.11.18.19.34.28.16.08.4.2.66.26.34.1.66.1 1 0 .31-.1.65-.33.88-.68.28-.34.49-.8.63-1.3.13-.52.22-1 .2-1.46a2.51 2.51 0 0 0-.32-1.2c-.19-.32-.5-.54-.93-.66-.3-.07-.51-.13-.7-.14a.86.86 0 0 0-.44.12l-.54.67-.5-.22.53-1.1c.13.04.3.04.53.05l.6.03c.18 0 .44.07.7.13.55.15 1.03.42 1.38.83ZM129.77 310.8l.14-.38.83.18 1.39-3.99-.98.75-3.25 2.02-.06.21.7.33-.15.37-2.18-.77.14-.37.66.13 1.7-4.96-.66-.32.15-.37 2.22.78-.14.37-.74-.15-1.4 4.03.92-.71 3.35-2.04.08-.3-.74-.34.15-.37 2.22.78-.14.37-.7-.14-1.7 4.96.61.3-.15.38-2.27-.75ZM121.16 307.62l.75-2.1.54.2-.4 1.68 1.68.73 1.97-4.94-1.34-.64.14-.37 3.08 1.2-.15.37-.9-.25-1.9 4.87.8.44-.14.38-4.13-1.57ZM120.02 306.58l.54.38-.15.37-2.09-.93.15-.37.68.18.92-2.05-2.71-1.19-.92 2.05.59.4-.15.37-2.05-.92.14-.38.65.18 2.11-4.8-.6-.35.15-.38 2.05.92-.15.37-.67-.22-1.02 2.25 2.72 1.19 1.01-2.26-.64-.35.15-.38 2.13.94-.14.38-.63-.22-2.07 4.82ZM112.03 303.48l-.8-.4.76-6.13-.42-.3.19-.36 1.98.99-.19.36-.67-.23-.2 1.28 2.18 1.1.9-.96-.63-.4.19-.36 1.78.89-.19.36-.5-.18-4.38 4.34Zm.11-1.44-.15.74.53-.6 1.97-2.04-1.9-.97-.45 2.87ZM108.74 297.27c.48-.6.92-1.04 1.31-1.3.22-.13.37-.18.56-.22.19 0 .36.05.56.15.25.11.4.24.51.32l-.26.62c-.11-.08-.27-.17-.55-.33a.28.28 0 0 0-.26-.07c-.1.02-.2.04-.3.1-.7.37-1.54 1.47-2.57 3.26l-.34.6.8.58-.19.36-4.23-2.37.2-.36.74.29 2.56-4.6-.7-.46.19-.36 2.28 1.25-.19.37-.78-.35-2.55 4.55 1.48.81.37-.68c.4-.81.88-1.56 1.36-2.16ZM96.1 294.25l.23-.35.74.33 2.8-4.44-.61-.48.23-.35 2.07 1.34-.23.35-.7-.33-2.79 4.44.6.49-.22.35-2.12-1.35Zm5.77.72c-.58-.39-.93-.8-1.08-1.26-.16-.45-.08-.93.25-1.44.33-.56.77-.85 1.3-.94.53-.09 1.09.06 1.68.4.08.07.16.1.24.16.07.07.15.13.23.15.27.21.5.37.7.51l.97.63-.23.35-.65-.31-2.8 4.44.52.46-.23.35-2.04-1.28.23-.35.78.34 1.04-1.65-.9-.56Zm2.41-2.48c-.07-.06-.2-.14-.4-.24-.39-.24-.77-.35-1.12-.26-.34.1-.64.34-.94.76-.24.4-.33.74-.24 1.08.1.35.33.65.73.89l.74.47 1.52-2.4a.78.78 0 0 0-.29-.3ZM93.2 291.54l.46.5-.23.34-1.84-1.36.23-.35.64.35 1.37-1.83-2.38-1.74-1.37 1.84.47.49-.24.35-1.79-1.36.23-.35.6.3 3.11-4.21-.47-.45.23-.35 1.84 1.36-.23.35-.6-.34-1.44 1.95 2.38 1.74 1.44-1.95-.55-.52.23-.35 1.88 1.38-.23.35-.6-.34-3.14 4.2ZM86.06 286.83l-.71-.6 2.06-5.83-.34-.42.26-.3 1.74 1.4-.28.33-.58-.39-.46 1.21 1.92 1.57 1.1-.71-.5-.5.26-.3 1.55 1.24-.26.3-.48-.27-5.28 3.27Zm.45-1.35-.28.7.63-.47 2.35-1.57-1.65-1.36-1.05 2.7ZM81.05 281.86l.6.71-.27.3-1.65-1.55 1.7-3.58.53-.96-.9.63-3.43 1.97-1.62-1.49.26-.3.77.58 3.07-4.27-.48-.6.26-.29 1.76 1.67-.27.3-.61-.45-2.28 3.02-1 1.3 1.1-.63 4.05-2.27.4.38-1.73 3.9-.73 1.5 1.21-1.1 2.84-2.54-.57-.61.27-.3 1.62 1.5-.27.3-.57-.44-4.06 3.32Z" fill="#313131"/><path d="m73.7 275.57-.65-.67 2.76-5.5-.3-.45.31-.29 1.54 1.6-.3.3-.58-.44-.63 1.17 1.74 1.75 1.17-.6-.44-.58.3-.29 1.4 1.43-.3.29-.42-.3-5.6 2.58Zm.62-1.3-.37.69.7-.37 2.54-1.3-1.5-1.54-1.37 2.52ZM70.9 271.8l.35.55-.3.28-.74-.84c-.15-.13-.29-.3-.44-.43-.22-.2-.43-.44-.61-.63-.53-.6-.8-1.13-.81-1.6-.02-.45.23-.85.66-1.28a2.06 2.06 0 0 1 2.22-.42c.38.15.72.42 1.04.78l.31.37c.11.12.17.22.22.24l1.38-1.24-.71-.93.3-.28 1.84 2.05-.3.29-.53-.46-3.88 3.55Zm1.05-3.26c-.28-.3-.65-.5-1-.54-.36-.05-.82.15-1.26.58-.36.32-.54.64-.53.96 0 .32.18.69.5 1.05.1.12.25.25.4.38.07.07.15.13.18.19l2.23-1.97-.52-.65ZM71.03 263.75c.09.53 0 1.01-.26 1.5-.22.48-.62.93-1.1 1.35-.48.42-1 .65-1.53.74-.53.09-1.08.08-1.57-.15-.5-.18-.92-.48-1.3-.94a8.1 8.1 0 0 1-.84-1.33l-.12-.26 1.21-.92.35.42-.68.83c.02.1.03.23.11.44.1.16.22.38.39.6.24.3.52.47.86.56.34.1.72.06 1.12-.07.4-.12.84-.37 1.25-.72.42-.35.73-.67.98-1.07.24-.4.39-.77.4-1.13 0-.37-.14-.72-.37-1.06-.17-.23-.36-.37-.5-.5a.54.54 0 0 0-.42-.16l-.86.27-.29-.44 1.03-.6c.08.07.22.2.42.34.19.15.35.23.5.37.14.13.28.3.5.5.44.44.68.91.72 1.43ZM57.3 255.39l.33-.23.52.64 3.52-2.36-1.23-.01-3.8-.38-.18.14.32.68-.33.23-1.27-1.94.33-.23.47.49 4.36-2.92-.33-.64.34-.23 1.3 1.96-.33.23-.48-.59-3.58 2.4 1.15-.02 3.88.4.28-.16-.37-.7.34-.22 1.31 1.95-.34.24-.45-.54-4.36 2.92.29.63-.34.23-1.35-1.97ZM54.31 250.6c-.18-.2-.32-.37-.46-.5-.15-.13-.2-.28-.31-.4-.34-.6-.53-1.1-.54-1.57-.02-.46.2-.77.64-1.02.38-.22.77-.3 1.15-.2.39.1.7.33.98.63-.25-.43-.36-.88-.26-1.26.1-.39.33-.7.66-.93.5-.32 1.03-.4 1.5-.24.45.17.9.56 1.35 1.28.15.27.31.55.38.8l.2.6c.06.15.08.25.07.3l-1.32.6-.21-.38.8-.75c-.01-.32-.15-.68-.4-1.07-.2-.32-.46-.53-.73-.56-.27-.03-.66.05-1.04.27-.28.2-.48.43-.6.71-.08.3 0 .7.26 1.08l.33.5-.4.27-.25-.44a1.56 1.56 0 0 0-.46-.49c-.2-.14-.4-.2-.63-.21-.23-.02-.48.05-.75.2-.32.2-.48.43-.55.69-.02.27.04.56.22.88.13.22.27.4.43.48.14.14.27.17.37.15l.76-.26.3.45-1.08.72c-.08-.02-.19-.14-.4-.34ZM51 244.1l.24.67-.37.17-.56-1.02c-.09-.16-.22-.38-.38-.6-.17-.23-.27-.4-.33-.5-.36-.7-.5-1.24-.48-1.65.06-.4.28-.7.72-.96.37-.17.71-.26 1.06-.17.35.05.66.27.9.56-.24-.47-.35-.92-.25-1.3.1-.39.33-.7.75-.9.49-.29 1-.33 1.5-.1.5.17.96.66 1.42 1.52.1.16.18.37.27.53.18.37.3.63.37.7l.52.96-.37.18-.4-.57-4.61 2.49Zm1.35-2.3-.2-.42c-.2-.32-.4-.56-.7-.64-.3-.09-.6-.03-.97.15-.32.19-.56.4-.63.66-.07.25.02.6.23 1.02l.31.55.1.16 2.08-1.1-.22-.38Zm2.55-1.8c-.28-.48-.57-.79-.9-.92-.33-.14-.67-.09-1.05.13s-.62.43-.65.74c-.04.31 0 .65.26 1.08.28.5.42.8.52.97l2.2-1.2c-.06-.1-.17-.37-.38-.8ZM47.17 237.85l-.42-.85 4.33-4.35-.14-.5.37-.17.98 2-.37.18-.39-.6-.97.88 1.06 2.21 1.3-.2-.23-.7.37-.18.85 1.79-.37.17-.3-.44-6.07.76Zm.97-1.07-.6.52.78-.16 2.81-.39-.94-1.95-2.05 1.98ZM50.5 230.75c-.1.48-.31.97-.64 1.34-.33.37-.84.74-1.42 1-.57.26-1.14.34-1.68.28a3.06 3.06 0 0 1-1.47-.53c-.42-.3-.76-.75-.99-1.27-.16-.41-.3-.9-.42-1.5l-.06-.28 1.43-.54.22.52-.9.63c-.02.09-.02.27.02.46.03.2.1.45.22.7.15.32.34.6.66.78.32.18.67.27 1.09.25.42-.03.9-.13 1.42-.36.47-.2.9-.44 1.26-.76s.58-.63.69-1.01c.14-.38.1-.75-.07-1.12a2.49 2.49 0 0 0-.34-.6c-.11-.12-.22-.24-.39-.28l-.91-.02-.14-.5 1.17-.28c.07.11.16.27.3.45.13.17.28.3.38.47.1.16.22.38.33.64.23.52.32 1.05.23 1.53ZM43.2 225.26a2.8 2.8 0 0 1-1.28-.57c-.33-.28-.6-.67-.75-1.12-.19-.51-.24-.99-.12-1.46.13-.47.33-.87.7-1.19.36-.36.8-.61 1.36-.83a4.9 4.9 0 0 1 1.78-.3c.54.05 1.04.23 1.42.52.38.28.69.69.89 1.15.18.51.23 1.03.14 1.51-.08.49-.32.88-.7 1.24-.37.36-.81.65-1.38.87l.49 1.27 2.3-.85-.18-.73.4-.13.8 2.19-.4.12-.34-.64-4.9 1.81.15.68-.4.13-.8-2.15.4-.12.33.64 2.14-.8-.48-1.28c-.54.13-1.1.16-1.57.04Zm-.52-.83c.56.15 1.27.07 2.15-.3.77-.3 1.32-.65 1.67-1.1.35-.46.44-.95.25-1.46-.18-.5-.56-.79-1.08-.93-.51-.14-1.24 0-2.1.31-.77.3-1.32.66-1.66 1.07-.36.46-.43.9-.24 1.4.13.55.5.87 1.01 1.01ZM42.39 215.77c.22-.31.5-.7.9-1.14.26-.3.46-.52.6-.7a.81.81 0 0 0 .19-.37v-.32l.4-.13.32 1.01c.06.1-.04.31-.18.5a5.8 5.8 0 0 1-.79.9c-.4.44-.71.77-.92 1.03-.2.27-.27.48-.21.63l.14.5 2.3-.72-.11-.76.4-.12.69 2.2-.4.13-.3-.63-5 1.55.1.67-.4.12-.66-2.15.4-.13.29.63 2.3-.71-.23-.7-2.83-.9.13.72-.4.12-.61-2 .4-.12.3.59 2.9 1c-.06-.15.07-.44.28-.7ZM43.73 211.77a2.5 2.5 0 0 1-.85 1.14c-.4.31-.94.58-1.53.74-.64.15-1.2.19-1.73.1-.52-.1-.96-.36-1.33-.69a2.46 2.46 0 0 1-.75-1.3 2.41 2.41 0 0 1 .3-2.17c.43-.57 1.1-.99 2.04-1.24a4.37 4.37 0 0 1 1.76-.08c.53.1 1 .36 1.38.69.37.33.62.76.75 1.3s.13 1.05-.04 1.5Zm-4.8.96c.55.2 1.25.15 2.13-.07a3.55 3.55 0 0 0 1.81-.94c.39-.4.53-.92.38-1.41-.13-.54-.5-.87-1.04-1.06a3.93 3.93 0 0 0-2.18.06c-.83.19-1.43.53-1.81.93-.38.4-.51.88-.38 1.42.23.52.59.89 1.1 1.07ZM37.04 207.45l.04.7-.39.08-.25-1.12c-.04-.2-.1-.45-.18-.7-.07-.25-.15-.45-.16-.59a3.13 3.13 0 0 1 0-1.7c.14-.37.48-.6.92-.72.4-.08.75-.03 1.08.1.32.19.57.44.75.8-.13-.53-.12-.94.07-1.3.2-.37.53-.6.96-.67a1.65 1.65 0 0 1 1.48.3c.42.3.76.95.94 1.82.04.2.08.39.07.57.07.43.14.68.16.78l.26 1.08-.38.08-.24-.66-5.13 1.15Zm1.91-1.83-.1-.44c-.09-.4-.24-.66-.52-.83-.23-.15-.59-.2-.99-.08-.39.08-.66.24-.77.48-.11.25-.16.6-.06 1.09.04.2.08.39.16.6l.05.14 2.29-.49c.02-.08-.03-.23-.06-.47Zm2.9-1.06c-.13-.54-.3-.9-.61-1.13-.27-.2-.62-.26-1.06-.15-.44.07-.72.27-.83.52-.15.23-.17.64-.07 1.13.13.54.2.92.26 1.08l2.44-.54c.03-.13-.03-.42-.13-.9ZM34.13 194.5l.43-.06.22.7 5.18-.82-.02-.78.43-.07.38 2.35-.43.07-.18-.7-5.18.82.43 2.69 5.22-.8-.02-.8.43-.06.34 2.34-.43.07-.2-.65-5.17.81-.01.74-.43.06-1-5.9ZM39.82 191.76c-.2.4-.57.76-1 1.02-.44.25-1 .42-1.65.47a4.13 4.13 0 0 1-1.74-.19 2.65 2.65 0 0 1-1.78-2.27c-.1-.85.1-1.57.6-2.08a3.5 3.5 0 0 1 2.23-.92c.66-.06 1.24 0 1.74.19a2.66 2.66 0 0 1 1.82 2.28c.07.61-.02 1.1-.22 1.5Zm-4.89.25c.53.28 1.2.32 2.14.25.85-.1 1.46-.3 1.93-.68.45-.33.67-.78.59-1.35-.05-.52-.35-.92-.87-1.2a3.88 3.88 0 0 0-2.14-.25c-.85.1-1.5.28-1.93.68-.45.33-.62.8-.55 1.36.04.56.34.97.83 1.19ZM37.16 185.08c.76.06 1.37.18 1.78.38.2.1.35.23.45.35.1.17.15.32.19.51a2 2 0 0 1-.02.6l-.67.09-.01-.64c-.02-.1-.04-.2-.11-.27a2.12 2.12 0 0 0-.27-.2c-.68-.37-2.07-.51-4.12-.38l-.66.06-.03.96-.42.02-.3-4.86.42-.02.16.78 5.23-.35.03-.81.42-.03.19 2.58-.42.02-.14-.86-5.22.3.09 1.72.74-.03c1.05 0 1.93.01 2.69.08ZM33.48 180.14l-.1.71-.42.03-.09-4.3 1.33-.15v.47l-.8.24v2.1l2.35-.05-.04-1.39-.7-.1-.02-.46 1.94-.03v.46l-.71.13-.02 1.42 2.5-.06-.14-2.38-1.08-.43.14-.52 1.45.21.09 4.66-.42.03-.09-.72-5.17.13ZM33.38 173.14l.03 1.43 1.75.33-.01.55-2.25-.19.12-5.25 2.26-.03v.54l-1.77.26-.07 1.46 5.3.08.1-1.2h.4l-.07 3.2-.41-.01-.07-1.13-5.31-.04ZM36.73 166.64l-.02.41c.1.16.24.3.52.46.23.16.55.34.96.53.4.2.68.37.88.47.2.1.31.22.29.3l-.07 1.14-.41-.02-.05-.34c-.02-.1-.1-.16-.2-.28-.16-.09-.35-.23-.66-.45-.36-.19-.63-.4-.86-.55a1.43 1.43 0 0 1-.47-.5c-.14.38-.35.64-.69.88-.33.18-.67.27-1.12.25-.68-.05-1.13-.26-1.38-.7-.25-.43-.33-1-.27-1.72 0-.18.05-.36.07-.62.03-.27.09-.49.08-.63l.1-1.21.4.02.05.7 5.23.34.12-.79.4.02-.15 2.48-.41-.02v-.83l-2.27-.14-.07.8Zm-3.06-.77c-.06.26-.08.48-.08.67-.03.45.02.78.23 1.02.2.24.5.37 1 .4.44.04.79-.06 1.07-.25.28-.2.38-.55.45-.99.03-.45.05-.72.01-.91l-2.56-.18-.12.24ZM34.1 161.03l-.11 1.44 1.71.46-.05.53-2.24-.37.57-5.22 2.26.15-.06.54-1.76.07-.2 1.46 5.25.59.23-1.18.4.06-.36 3.2-.4-.05.02-1.1-5.26-.58ZM40.47 154.75c-.33.37-.78.66-1.28.8s-1.1.17-1.7.05a3.47 3.47 0 0 1-1.58-.65 2.98 2.98 0 0 1-.94-1.26 2.94 2.94 0 0 1-.13-1.6c.07-.44.21-.95.45-1.49l.1-.24 1.49.3-.1.57-1.12.03c-.06.07-.14.19-.24.39-.09.16-.16.41-.18.68-.05.36 0 .7.14 1 .15.32.4.57.8.82a4.77 4.77 0 0 0 2.85.49 2.4 2.4 0 0 0 1.13-.48c.3-.24.48-.56.55-1 .04-.31.05-.54.04-.68 0-.14-.06-.3-.15-.45l-.75-.48.14-.51 1.13.4c-.03.12.02.27.05.51.04.2.02.42.06.61.04.2-.01.41-.05.72a3.8 3.8 0 0 1-.71 1.47ZM35.85 146.94l.4.06-.08.81 4.13.88-.87-.88-2.41-2.99-.22-.05-.23.71-.4-.06.47-2.26.4.06-.05.68 5.12 1.1.23-.68.39.1-.48 2.3-.39-.1.07-.76-4.21-.9.83.82 2.45 3.05.3.08.25-.76.4.06-.49 2.3-.4-.06.06-.72-5.12-1.1-.22.64-.4-.06.47-2.27ZM37.92 138.04l2.16.49-.15.56-1.7-.18-.52 1.78 5.16 1.3.47-1.4.38.1-.8 3.19-.39-.1.16-.93-5.08-1.26-.31.83-.39-.1 1-4.28ZM38.81 136.76l-.3.61-.39-.1.69-2.2.38.1-.1.7 2.17.68.85-2.85-2.16-.67-.3.6-.39-.1.67-2.16.39.1-.09.67 5.01 1.53.26-.62.38.1-.67 2.16-.38-.1.14-.7-2.33-.71-.86 2.84 2.33.72.27-.66.39.1-.68 2.2-.39-.1.13-.65-5.02-1.49ZM40.85 128.45l.33-.87h6.15l.27-.49.37.15-.74 2.1-.38-.15.15-.7-1.33-.03-.8 2.3 1.03.79.31-.65.38.14-.65 1.9-.37-.15.1-.53-4.82-3.8Zm1.48-.02-.76-.06.65.45 2.26 1.7.72-2-2.87-.09ZM46.67 124.4c.67.42 1.17.78 1.44 1.13.14.17.22.38.27.53.04.2 0 .37-.05.54-.11.24-.2.4-.28.52l-.63-.21c.08-.12.13-.33.25-.58.02-.09.05-.22.02-.27-.02-.1-.08-.2-.14-.31-.48-.64-1.66-1.36-3.57-2.1l-.62-.27-.46.85-.37-.15 1.8-4.52.38.15-.2.77 4.85 1.94.37-.72.38.14-.97 2.4-.37-.14.23-.86-4.85-1.94-.65 1.57.7.28c.97.5 1.8.85 2.47 1.26ZM48.02 117.29c.3-.6.64-1.02 1.11-1.22.47-.2.92-.17 1.45.07.57.29.97.67 1.1 1.21.14.5.08 1.08-.22 1.69-.03.08-.1.15-.11.24-.07.08-.1.16-.17.28-.17.27-.28.52-.39.77l-.46 1.02-.36-.19.23-.67-4.77-2.24-.4.58-.35-.19.99-2.17.36.2-.26.8 1.75.83.5-1.01Zm0-5.83.37.19-.25.76 4.73 2.23.4-.67.37.19-1.06 2.24-.37-.2.25-.75-4.72-2.23-.41.67-.37-.19 1.06-2.24Zm2.79 7.95c.06-.07.1-.24.2-.4.2-.4.21-.82.08-1.18-.13-.35-.43-.61-.88-.83-.4-.2-.81-.22-1.12-.11-.31.14-.56.4-.76.8l-.35.78 2.57 1.2c.11-.07.19-.18.26-.26ZM50.3 108.26l-.41.53-.37-.19 1.13-2 .37.2-.27.66 2 1.09 1.43-2.6-2-1.09-.42.53-.36-.19 1.08-1.96.36.19-.22.63 4.6 2.56.41-.53.37.2-1.1 2-.35-.2.27-.66-2.17-1.17-1.43 2.6 2.16 1.17.44-.61.37.19-1.14 2.03-.37-.19.26-.62-4.64-2.57ZM54.1 100.6l.49-.79 6.02 1.34.34-.41.35.23-1.2 1.88-.34-.23.31-.65-1.28-.34-1.3 2.08.83 1 .48-.56.35.23-1.05 1.7-.35-.23.22-.5-3.87-4.75Zm1.4.28-.73-.2.54.56 1.85 2.15 1.13-1.8-2.8-.7ZM58.41 94.96l-.6.71-.35-.23 1.3-1.8 3.76 1.23 1.04.41-.74-.84-2.4-3.17 1.3-1.8.35.23-.44.8 4.66 2.48.51-.55.35.24-1.45 2-.35-.24.37-.68-3.3-1.9-1.45-.8.8 1 2.76 3.72-.3.47-4.09-1.23-1.6-.52 1.23 1.06 2.87 2.47.54-.63.35.23-1.25 1.77-.36-.23.36-.64-3.87-3.56Z" fill="#313131"/><path d="m63.69 86.92.56-.72 5.84 2.02.37-.36.34.27-1.38 1.75-.34-.28.38-.58-1.2-.47-1.53 1.94.72 1.06.5-.5.34.27-1.24 1.55-.34-.28.27-.48-3.29-5.2Zm1.36.4-.7-.27.47.63 1.57 2.35 1.32-1.67-2.66-1.03ZM67.09 83.65l-.52.41-.34-.27.73-.86c.13-.15.27-.3.35-.46.2-.22.36-.45.55-.68.53-.6 1.04-.96 1.47-1.03.43-.07.9.1 1.34.5a2.05 2.05 0 0 1 .7 2.16c-.1.39-.3.8-.62 1.12-.12.1-.2.27-.33.37-.12.1-.18.18-.2.22l1.43 1.21.8-.8.3.27-1.8 2.09-.3-.26.4-.59-3.96-3.4Zm3.37.63c.27-.34.42-.72.38-1.1-.04-.37-.26-.75-.73-1.2-.37-.33-.7-.46-1.04-.41-.33.04-.62.24-1 .65-.13.14-.22.3-.35.45-.08.12-.13.15-.14.2l2.28 1.94c.15-.06.33-.24.6-.53ZM75.13 82.78c-.5.14-1 .1-1.5-.04-.5-.18-.99-.45-1.46-.9a3.6 3.6 0 0 1-.95-1.44 3.04 3.04 0 0 1-.08-1.59c.14-.51.36-1 .79-1.4.32-.32.68-.64 1.23-1l.23-.16 1.03 1.1-.38.4-.95-.57c-.1.02-.25.07-.4.16-.17.1-.36.28-.54.46-.25.25-.39.58-.43.9-.05.35.05.7.21 1.1.18.37.48.78.88 1.16.36.37.8.63 1.2.83.41.2.8.26 1.19.22.37-.03.7-.22 1-.5.2-.23.34-.42.42-.54a.76.76 0 0 0 .12-.43l-.38-.83.42-.35.75.98c-.07.08-.16.24-.27.48l-.28.52c-.09.16-.23.35-.43.58-.48.42-.97.7-1.42.86ZM80.12 69.47l.28.3-.53.64 2.83 3.14-.18-1.24-.17-3.8-.14-.18-.62.43-.28-.3 1.75-1.56.28.3-.42.54 3.5 3.92.56-.4.29.3-1.75 1.56-.28-.3.51-.56-2.86-3.2.2 1.16.14 3.9.22.23.63-.47.28.3-1.76 1.6-.28-.3.46-.53-3.5-3.92-.55.36-.28-.3 1.67-1.62ZM84.48 65.86l.42-.53c.13-.15.25-.25.37-.36a3.12 3.12 0 0 1 1.49-.75c.43-.07.8.12 1.1.48.28.35.42.7.36 1.1-.06.4-.2.73-.47 1.07.4-.3.81-.47 1.2-.4.42.01.74.19 1.01.54.38.47.52.96.44 1.45-.09.48-.45.98-1.1 1.5a4.44 4.44 0 0 1-1.3.75c-.15.05-.24.07-.26.11l-.81-1.23.34-.27.87.7c.3-.07.67-.25 1.03-.56.29-.24.46-.52.44-.8 0-.32-.1-.63-.43-.99-.2-.28-.47-.45-.78-.48-.31-.04-.67.1-1.07.4l-.47.38-.32-.36.36-.32c.17-.14.32-.33.42-.53.1-.2.16-.42.13-.65a1.48 1.48 0 0 0-.33-.69c-.24-.3-.47-.45-.75-.43-.28.02-.54.13-.82.33-.2.18-.32.33-.45.48a.41.41 0 0 0-.1.38l.36.7-.42.34-.88-.97c.1-.06.24-.2.42-.39ZM90.43 61.67l-.64.33-.24-.33.92-.68c.16-.1.35-.27.58-.44.18-.18.36-.32.47-.38.63-.47 1.15-.7 1.56-.68.4.02.77.2 1.04.55.23.34.32.69.32 1.05 0 .37-.19.69-.45.98a1.8 1.8 0 0 1 1.27-.44c.4.02.76.25.99.59.33.46.43.94.34 1.47-.1.52-.56 1.04-1.31 1.62-.17.14-.34.23-.5.33-.38.22-.57.4-.66.42l-.92.67-.23-.34.5-.46-3.04-4.26Zm2.43 1.02.4-.26c.33-.23.5-.51.52-.78a1.5 1.5 0 0 0-.3-.95c-.22-.34-.46-.5-.73-.52-.27-.02-.62.1-.97.38-.18.14-.34.23-.47.38l-.12.1 1.38 1.9c-.05-.02.12-.11.3-.25Zm2.16 2.23c.46-.34.73-.68.78-1.03.05-.35-.04-.7-.27-1.04-.28-.35-.54-.55-.81-.58-.31-.04-.63.1-1.03.41l-.86.64 1.47 2.05c.1-.02.33-.19.72-.45ZM96.09 56.99l.78-.53 4.93 3.71.48-.24.23.34-1.85 1.25-.23-.34.53-.45-1.02-.83-2.06 1.38.35 1.24.64-.33.23.34-1.67 1.1-.23-.33.37-.36L96.09 57Zm1.2.83-.6-.49.25.76.78 2.73 1.79-1.17-2.22-1.83ZM103.56 59.27c-.5 0-.97-.17-1.45-.44a4.5 4.5 0 0 1-1.17-1.28 3.94 3.94 0 0 1-.53-1.6c-.05-.52.1-1.08.36-1.52.26-.48.63-.84 1.13-1.16.38-.22.85-.42 1.46-.62l.26-.12.7 1.34-.5.28-.74-.8c-.09-.02-.24.03-.44.07-.19.04-.4.17-.63.3-.32.18-.53.44-.65.73-.14.33-.19.69-.12 1.12a4.96 4.96 0 0 0 1.5 2.47c.34.27.7.46 1.09.56.38.1.73.02 1.1-.2.28-.16.45-.3.53-.41.12-.11.21-.27.24-.4l-.12-.9.48-.24.43 1.12c-.1.07-.23.17-.37.36-.13.15-.27.3-.44.44-.13.14-.35.27-.57.4-.5.36-1.05.5-1.55.5ZM107.95 51.26a2.65 2.65 0 0 1 1.4-2.29 2.5 2.5 0 0 1 1.42-.35c.45.03.91.2 1.28.53s.72.74 1.05 1.24c.34.6.5 1.2.54 1.75.03.56-.05 1.05-.3 1.48a2.68 2.68 0 0 1-2.48 1.36c-.45-.03-.91-.2-1.3-.49a3.65 3.65 0 0 1-1.04-1.24l-1.18.65 1.16 2.15.68-.28.17.37-2.04 1.1-.17-.37.56-.4-2.48-4.6-.66.23-.22-.38 1.99-1.08.22.38-.57.4 1.08 1.99 1.22-.64a3.15 3.15 0 0 1-.33-1.5Zm.8-.57c-.07.58.11 1.28.58 2.09.41.7.82 1.23 1.35 1.5.52.28.97.31 1.5.04.48-.24.73-.67.74-1.22.01-.55-.17-1.24-.6-2.04-.4-.71-.82-1.23-1.3-1.5-.47-.27-.97-.3-1.45-.07-.47.24-.76.62-.82 1.2ZM117.3 49.13c.31.17.7.42 1.23.7.35.23.58.38.78.48.2.1.3.13.4.1l.33-.04.17.37-.94.43c-.11.06-.28.02-.53-.1-.24-.1-.55-.32-.98-.62-.45-.35-.85-.6-1.12-.76-.28-.17-.5-.18-.66-.13l-.48.24 1.03 2.15.7-.22.18.37-2.1 1-.18-.37.6-.35-2.22-4.73-.65.2-.18-.37 2.05-.97.18.37-.61.39 1.02 2.2.64-.33.5-2.94-.7.22-.17-.37 1.89-.87.17.37-.55.36-.62 3c.18 0 .48.08.81.22ZM121.44 49.92a2.21 2.21 0 0 1-1.23-.7c-.36-.37-.7-.83-.95-1.45a3.58 3.58 0 0 1-.33-1.7c.06-.53.18-1 .48-1.42.3-.43.7-.73 1.17-.93.82-.33 1.5-.33 2.16-.02.65.31 1.17.96 1.53 1.83.25.62.37 1.2.31 1.74a3.06 3.06 0 0 1-.48 1.48c-.3.42-.7.73-1.17.92-.53.27-1 .33-1.49.25Zm-1.62-4.57c-.1.57.03 1.25.35 2.12.34.78.74 1.34 1.2 1.65.47.35.96.4 1.48.17.5-.19.8-.61.91-1.18a3.7 3.7 0 0 0-.4-2.13 3.72 3.72 0 0 0-1.2-1.65c-.47-.31-.95-.4-1.47-.17-.48.24-.77.62-.87 1.2ZM124.76 42.68l-.68.14-.13-.4 1.08-.4c.2-.04.4-.17.67-.28.26-.11.42-.2.56-.22.72-.27 1.29-.34 1.67-.24.39.1.69.37.84.82.13.36.17.74.03 1.07-.13.33-.35.64-.68.83.51-.19.93-.21 1.32-.11.38.1.67.4.82.86.19.51.18 1.06-.08 1.5-.26.48-.83.88-1.7 1.2a3 3 0 0 1-.55.17c-.4.12-.66.23-.75.25l-1.08.4-.13-.35.64-.34-1.85-4.9Zm2.08 1.66.45-.15c.36-.14.6-.35.72-.64.13-.29.12-.6-.06-.98a1.2 1.2 0 0 0-.59-.7c-.24-.12-.62-.08-1.07.07-.2.09-.37.18-.58.26l-.16.1.83 2.2c.06-.04.2-.09.46-.16Zm1.43 2.72c.5-.18.85-.46 1.03-.77.18-.32.17-.65.02-1.1-.17-.41-.38-.65-.62-.77-.3-.12-.67-.08-1.13.11-.56.18-.87.32-1.02.38l.88 2.34c.12.08.42-.02.84-.19ZM137.16 38.02l.13.4-.64.33 1.5 5 .78-.16.12.4-2.25.68-.12-.4.63-.3-1.54-5.04-2.6.77 1.55 5.05.77-.16.13.4-2.25.69-.13-.4.63-.3-1.5-4.99-.73.13-.12-.4 5.64-1.7ZM140.68 43.23a2.5 2.5 0 0 1-1.15-.86c-.3-.4-.53-.92-.68-1.56a4.13 4.13 0 0 1-.08-1.77c.1-.52.35-.96.68-1.33.33-.37.76-.62 1.3-.75a2.41 2.41 0 0 1 2.17.3c.57.43 1 1.1 1.23 2.08.16.64.18 1.24.08 1.76-.1.57-.36 1.01-.73 1.37-.37.36-.8.6-1.3.75-.6.16-1.06.18-1.52 0Zm-.96-4.8c-.2.54-.15 1.24.07 2.13.19.83.53 1.43.94 1.8.4.4.91.53 1.4.39.55-.13.87-.46 1.07-1.05.2-.55.16-1.29-.06-2.17a3.56 3.56 0 0 0-.94-1.82c-.4-.38-.87-.5-1.41-.37-.52.22-.9.58-1.07 1.09ZM146.96 39.68c.06.8 0 1.37-.18 1.83-.05.22-.2.4-.31.51-.13.11-.29.2-.48.24-.25.07-.48.06-.57.08l-.2-.65c.14 0 .34-.05.63-.1.1-.03.2-.05.26-.12a.63.63 0 0 0 .16-.28c.3-.75.2-2.1-.22-4.14l-.15-.64-.99.1-.08-.39 4.76-.97.08.39-.76.25 1.06 5.15.85-.09.08.39-2.53.52-.08-.4.86-.27-1.06-5.15-1.65.34.17.73c.15 1 .27 1.91.35 2.67ZM151.29 35.33h-.69l-.07-.43 4.23-.7.34 1.28-.47.06-.38-.8-2.05.28.38 2.35 1.4-.26v-.7l.48-.05.3 1.92-.47.06-.22-.7-1.4.22.4 2.49 2.33-.48.25-1.12.53.1.02 1.47-4.61.74-.08-.4.7-.17-.92-5.16ZM158.23 34.25l-1.43.21-.06 1.78-.57.07-.14-2.24 5.22-.62.37 2.21-.52.05-.5-1.74-1.45.11.66 5.27 1.2-.04.03.42-3.18.39-.03-.42 1.07-.22-.67-5.23ZM165.12 36.65l-.42.02c-.12.1-.26.3-.37.55-.13.28-.26.61-.38 1.04-.15.42-.23.72-.33.92-.1.2-.18.32-.28.34l-1.13.11-.03-.42.3-.1c.1-.02.17-.1.26-.25.09-.16.2-.41.33-.74.15-.37.33-.7.44-.94.15-.23.3-.43.46-.52-.4-.06-.72-.24-.96-.53-.24-.3-.38-.65-.4-1.07-.05-.66.13-1.16.47-1.44.4-.3.96-.48 1.7-.5.14-.01.38-.04.65-.02l.6-.02 1.22-.09.02.42-.68.14.41 5.16.78.03.02.42-2.49.2-.02-.42.82-.15-.18-2.25-.8.1Zm.34-3.17c-.26-.03-.46.01-.68 0-.42.02-.78.16-.97.34-.24.2-.33.55-.27 1.03.01.46.2.78.41 1.03.27.2.6.3 1.03.27.46-.01.75-.07.9-.08l-.19-2.58-.22-.01ZM170.3 33.26l-1.46.12-.24 1.77-.56.03.06-2.28 5.24-.2.18 2.25h-.5l-.37-1.75-1.47.02.18 5.33 1.18.04.03.42-3.2.1-.02-.41 1.09-.12-.14-5.32ZM177.44 38.66c-.43-.3-.75-.66-.99-1.13a3.92 3.92 0 0 1 .13-3.37c.26-.48.63-.84 1.11-1.08.48-.24.97-.38 1.57-.36.4.02.94.07 1.54.23l.26.07-.13 1.53-.55-.01-.18-1.06a.95.95 0 0 0-.4-.2c-.22-.06-.44-.07-.71-.1-.37 0-.67.1-.95.3-.29.2-.5.5-.7.87a4.61 4.61 0 0 0-.12 2.86c.12.4.34.78.64 1.04s.63.4 1.03.42c.33 0 .51 0 .7-.05.16-.05.3-.1.43-.2l.36-.83.52.1-.22 1.18c-.14 0-.3.06-.53.09-.2.04-.4.12-.58.12-.2.04-.42.02-.7.04-.6-.02-1.1-.16-1.53-.46ZM184.47 32.97l-.02.41-.84.05-.3 4.23.76-.98 2.63-2.79.02-.22-.74-.16.01-.4 2.3.15-.01.41-.66.05-.35 5.24.7.14-.02.4-2.34-.16.02-.41.74-.03.28-4.29-.7.91-2.69 2.82-.04.31.8.12-.02.41-2.39-.18.02-.4.7-.05.35-5.23-.66-.13.02-.41 2.43.2ZM193.6 33.81l-.17 2.2-.58-.06-.04-1.7-1.86-.28-.6 5.3 1.45.26-.06.4-3.3-.38.07-.4.91.01.56-5.17-.85-.23.06-.4 4.42.45ZM195.03 34.52l-.63-.22.06-.4 2.25.33-.06.4-.73-.01-.33 2.25 2.9.46.34-2.26-.68-.22.06-.4 2.26.33-.06.4h-.7l-.78 5.16.64.17-.06.4-2.25-.33.06-.4h.69l.37-2.42-2.9-.46-.38 2.42.73.2-.06.4-2.3-.34.06-.4h.7l.8-5.06ZM203.51 35.41l.91.2.85 6.1.5.18-.06.4-2.18-.45.06-.4.72.06-.15-1.32-2.39-.5-.63 1.16.67.22-.06.4-1.96-.39.06-.4.55.01 3.11-5.27Zm.27 1.4-.08-.75-.32.7-1.35 2.48 2.09.42-.34-2.85ZM208.33 40.56c-.28.7-.61 1.26-.93 1.59-.19.18-.35.27-.5.32a.94.94 0 0 1-.55 0 2.36 2.36 0 0 1-.59-.21l.09-.67.6.16c.08.03.18 0 .28-.01.1-.02.16-.1.28-.2.56-.54 1.13-1.81 1.63-3.84l.17-.64-.9-.24.11-.43 4.74 1.18-.12.43-.8-.08-1.27 5.07.79.3-.1.4-2.54-.64.1-.39.88.15 1.27-5.08-1.68-.4-.2.72c-.2.92-.48 1.8-.76 2.5ZM215.57 40.94c.63.21 1.1.52 1.37.91.26.4.3.91.11 1.46-.22.63-.56 1.04-1.02 1.24a2.5 2.5 0 0 1-1.71.05l-.26-.07c-.09-.03-.17-.05-.29-.13-.29-.12-.59-.2-.83-.31l-1.1-.34.1-.39.7.14 1.52-5-.6-.3.1-.4 2.29.71-.1.39-.84-.13-.6 1.86 1.16.3Zm-1.73 3.02c.09.03.25.12.42.16.47.13.84.13 1.16-.05.33-.2.55-.5.68-.97.12-.47.12-.8-.07-1.12-.16-.27-.47-.5-.93-.66l-.81-.22-.82 2.72c.17.04.29.12.37.14Zm7.5-3.82-.1.39-.8-.12-1.52 5 .74.34-.1.39-2.38-.73.1-.39.78.17 1.53-5.01-.74-.34.1-.38 2.4.68ZM224.8 41.94l-.59-.34.15-.37 2.12.8-.14.37-.7-.14-.8 2.13 2.79 1.06.8-2.12-.6-.35.15-.37 2.13.8-.15.37-.65-.13-1.87 4.92.6.3-.14.38-2.13-.8.15-.38.68.19.9-2.3-2.8-1.06-.88 2.29.63.35-.14.38-2.16-.86.15-.37.68.18 1.83-4.93ZM232.92 44.58l.86.37-.46 6.16.43.3-.15.37-2.05-.91.15-.38.67.23.17-1.33-2.26-.98-.85.97.63.35-.14.38-1.85-.82.15-.37.51.14 4.19-4.48Zm-.03 1.46.11-.75-.48.6-1.86 2.12 1.98.85.25-2.82ZM239.1 48.07l-.78-.53.19-.36 1.97 1.03-.68 3.9-.24 1.09.72-.82 2.78-2.84 1.97 1.04-.19.36-.87-.33-1.83 4.93.62.44-.19.36-2.13-1.12.19-.36.7.28 1.4-3.53.6-1.53-.88.9-3.26 3.26-.48-.26.67-4.23.3-1.62-.88 1.37-2.05 3.22.7.46-.19.36-1.93-1.02.19-.36.66.27 2.92-4.36Z" fill="#313131"/><path d="m247.83 52.15.78.49-1.16 6.07.42.3-.19.36-1.9-1.11.19-.36.66.27.29-1.26-2.1-1.25-.97.89.57.43-.19.36-1.7-1 .19-.37.5.18 4.6-4Zm-.2 1.42.2-.73-.56.54-2.12 1.91 1.86 1.1.62-2.82ZM251.55 55.03l-.47-.45.23-.35.94.62.5.32c.28.17.53.28.76.43.66.46 1.1.9 1.2 1.34.12.44.03.92-.28 1.39-.24.4-.53.64-.9.81a1.9 1.9 0 0 1-1.15.16c-.4-.07-.8-.22-1.2-.47a2.15 2.15 0 0 1-.43-.3c-.16-.08-.23-.15-.26-.2l-1.02 1.56.91.7-.23.36-2.3-1.5.22-.35.66.32 2.82-4.39Zm-.14 3.45c.4.25.74.34 1.12.26.4-.08.74-.35 1.07-.9.25-.4.35-.79.25-1.1-.1-.3-.35-.59-.77-.89l-.53-.27c-.11-.08-.2-.1-.2-.1l-1.63 2.5c.15.13.34.27.69.5ZM253.54 62.86c-.2-.46-.24-.98-.16-1.46.09-.48.33-1.06.7-1.6.37-.5.8-.9 1.27-1.13.48-.24 1.01-.33 1.55-.28.53.05 1.04.23 1.5.59.34.23.75.61 1.14 1.04l.22.2-.96 1.16-.46-.3.44-.99c-.02-.1-.12-.22-.22-.38s-.32-.32-.56-.47c-.3-.22-.6-.3-.97-.3-.37-.01-.72.12-1.06.35-.34.23-.71.6-1 1.02-.3.42-.52.87-.68 1.29-.11.43-.17.82-.05 1.22.12.4.32.69.67.92.24.15.43.3.6.34.17.05.3.08.44.07l.77-.48.4.38-.87.87c-.12-.08-.29-.12-.5-.22-.2-.06-.37-.15-.58-.2l-.6-.35c-.44-.4-.83-.82-1.03-1.29ZM265.83 64.64l-.28.34-.7-.46-2.67 3.28 1.2-.37 3.74-.74.14-.2-.5-.54.28-.34 1.8 1.5-.27.33-.6-.34-3.34 4.06.5.5-.25.3-1.8-1.5.25-.29.63.4 2.73-3.31-1.1.35-3.84.76-.2.22.54.56-.26.3-1.85-1.5.27-.3.58.38 3.34-4.06-.46-.5.27-.33 1.85 1.5ZM270.1 68.4c.25.11.4.25.55.34.16.08.31.22.43.3.52.45.85.91.97 1.35.1.45 0 .83-.31 1.16-.32.33-.65.52-1.06.5-.37.04-.76-.07-1.11-.3.36.37.58.75.62 1.13.03.38-.11.75-.38 1.05-.4.44-.87.68-1.36.64-.5 0-1.03-.27-1.67-.81-.26-.21-.43-.44-.6-.67-.17-.23-.26-.39-.37-.51l-.16-.27 1.1-1 .3.27-.54.96c.1.3.35.6.68.91.3.27.54.38.87.33.3-.06.6-.2.88-.55.25-.25.33-.55.37-.86.04-.31-.2-.65-.56-.98l-.45-.4.32-.32.37.33c.2.14.38.28.6.34.21.06.44.07.69 0 .24-.07.42-.2.62-.43.26-.3.37-.54.31-.83-.02-.28-.18-.51-.48-.77a1.73 1.73 0 0 0-.54-.38.56.56 0 0 0-.4-.06l-.63.47-.42-.34.83-1.01c.13.17.3.26.53.41ZM275.12 73.65l-.4-.57.3-.28.8.8c.15.14.33.33.55.52l.45.4c.54.56.87 1.01.9 1.43.08.4-.07.77-.39 1.1-.3.28-.62.42-.95.47-.34.05-.72-.05-1.07-.28.4.38.62.76.64 1.18.03.42-.1.75-.42 1.08-.39.4-.9.59-1.39.55-.54-.06-1.13-.4-1.79-1.04-.15-.13-.28-.3-.39-.42-.28-.3-.46-.5-.54-.56l-.8-.8.31-.3.58.44 3.61-3.72Zm-2.5 5.03c.4.38.76.61 1.13.62.36 0 .68-.14.98-.43.3-.28.44-.61.42-.9-.01-.27-.2-.6-.56-.97-.4-.39-.66-.64-.76-.76l-1.76 1.78c.02.1.24.3.56.66Zm1.9-2.48.34.32c.3.26.57.43.85.41.28-.02.6-.16.86-.46.26-.3.42-.53.4-.8-.02-.29-.2-.61-.54-.93-.14-.13-.3-.27-.48-.4l-.15-.14-1.64 1.67c.08.02.19.14.37.33ZM280.66 78.49l.65.68-2.88 5.42.3.45-.31.28-1.49-1.64.3-.28.52.46.68-1.15-1.67-1.82-1.2.55.44.57-.3.29-1.36-1.47.3-.28.42.34 5.6-2.4Zm-.66 1.29.4-.67-.69.36-2.57 1.2 1.46 1.58 1.4-2.47ZM279.51 86.21c-.09-.53 0-1 .22-1.5.22-.49.58-.95 1.1-1.36.48-.42 1-.65 1.54-.78a2.9 2.9 0 0 1 2.89 1.05c.27.35.56.8.84 1.33l.1.26-1.2.91-.35-.41.7-.87c-.03-.1-.03-.24-.13-.4a2.8 2.8 0 0 0-.4-.57 1.6 1.6 0 0 0-.86-.55c-.34-.1-.72-.06-1.12.07-.4.12-.83.37-1.25.72a5.1 5.1 0 0 0-.97 1.07c-.25.4-.35.78-.36 1.14 0 .37.13.73.4 1.07a2 2 0 0 0 .52.46c.16.1.28.17.42.16l.86-.27.29.44-1.04.64a6.28 6.28 0 0 0-.92-.7c-.15-.13-.34-.28-.5-.5-.45-.4-.69-.88-.78-1.4ZM288.09 89.34a2.6 2.6 0 0 1 2.44 1.02c.33.45.5.87.55 1.34.01.46-.06.9-.31 1.34-.26.44-.6.85-1.11 1.22-.52.4-1.1.67-1.64.8a2.58 2.58 0 0 1-2.68-.95 2.94 2.94 0 0 1-.6-1.4c-.05-.47.07-.9.28-1.35.25-.44.6-.85 1.06-1.23l-.8-1.09-1.97 1.5.38.65-.34.23-1.39-1.84.34-.23.5.5 4.16-3.16-.35-.6.35-.27 1.36 1.79-.35.27-.5-.5-1.8 1.36.82 1.09a9.02 9.02 0 0 1 1.6-.5Zm.73.7c-.56.03-1.23.31-1.99.89-.64.52-1.09 1-1.28 1.54-.2.54-.14 1.02.2 1.47.35.42.75.62 1.32.54.56-.03 1.2-.36 1.95-.9.64-.52 1.09-1 1.28-1.54.2-.54.14-1.02-.17-1.42-.3-.4-.75-.62-1.31-.58ZM291.67 98.24c-.1.34-.3.79-.54 1.32-.19.37-.27.67-.36.83-.04.17-.09.34-.06.4l.1.3-.33.23-.6-.85c-.06-.11-.06-.3.05-.54.11-.24.26-.62.47-1.07.28-.52.44-.94.56-1.22.12-.3.1-.53.04-.68l-.3-.45-1.96 1.36.32.68-.34.23-1.28-1.9.34-.23.46.53 4.31-2.93-.29-.63.34-.23 1.25 1.85-.34.23-.45-.53-2.01 1.34.38.61 2.97.06-.33-.64.34-.23 1.14 1.73-.34.23-.46-.5-3.05-.12c.09.2.06.48-.03.82ZM291.5 102.46c.03-.45.16-.92.5-1.33.3-.43.72-.82 1.26-1.13.56-.36 1.11-.53 1.63-.58.56-.03 1.04.05 1.49.26.45.22.82.54 1.1 1.03.44.76.58 1.44.34 2.16a3.47 3.47 0 0 1-1.58 1.78c-.55.36-1.1.53-1.68.6a3.1 3.1 0 0 1-1.53-.27 2.8 2.8 0 0 1-1.1-1.03 3.05 3.05 0 0 1-.43-1.49Zm4.3-2.33a3.9 3.9 0 0 0-2.02.7c-.72.44-1.21.9-1.45 1.44-.27.53-.22 1 .06 1.49.3.44.73.7 1.28.7a3.7 3.7 0 0 0 2.03-.69c.71-.45 1.2-.91 1.44-1.45.22-.49.22-1-.06-1.48-.3-.45-.69-.7-1.28-.71ZM299.18 104.66l-.24-.66.38-.22.57.98c.09.16.22.38.38.6.17.23.27.4.33.5.36.7.55 1.2.48 1.65-.08.44-.28.7-.68.97-.32.18-.71.26-1.06.21a1.42 1.42 0 0 1-.95-.57c.28.49.36.88.29 1.32-.06.4-.33.69-.7.9-.5.3-1.01.34-1.52.16-.5-.18-.96-.68-1.43-1.5-.1-.15-.18-.36-.27-.52-.22-.38-.34-.64-.37-.7l-.56-.97.37-.18.4.56 4.58-2.53Zm-3.81 4.12c.28.49.56.8.9.89.35.09.68.04 1.06-.18s.6-.49.66-.74c.07-.26-.01-.65-.26-1.08l-.54-.93-2.2 1.2c.04.2.15.46.38.84Zm2.51-1.85.2.42c.2.33.46.54.72.6.3.08.59.02.97-.2.33-.18.52-.4.6-.66.06-.26-.03-.6-.28-1.04-.1-.16-.23-.34-.31-.54l-.1-.17-2.05 1.15.25.44ZM305.74 116.15l-.37.18-.39-.61-4.7 2.27.26.76-.37.18-1.03-2.16.37-.18.4.61 4.73-2.26-1.19-2.43-4.75 2.3.26.76-.37.18-1.04-2.12.37-.17.36.55 4.7-2.28-.23-.7.37-.17 2.62 5.29ZM301.1 120.46c.08-.48.32-.88.65-1.25.37-.36.83-.7 1.4-.95a3.38 3.38 0 0 1 1.7-.33c.53.05 1 .18 1.43.48.43.3.73.7.93 1.16.33.83.37 1.53.02 2.17a3.34 3.34 0 0 1-1.84 1.52c-.61.25-1.2.37-1.73.32a3.06 3.06 0 0 1-1.48-.49c-.43-.3-.73-.7-.97-1.18a2.87 2.87 0 0 1-.11-1.45Zm4.57-1.67c-.57-.1-1.25.04-2.12.4a3.7 3.7 0 0 0-1.66 1.2c-.3.48-.4.96-.16 1.48.22.52.6.8 1.18.91.56.1 1.29-.02 2.12-.4a3.72 3.72 0 0 0 1.66-1.2c.3-.47.35-.97.16-1.47-.23-.52-.6-.81-1.18-.92ZM305.56 126.06c-.78.16-1.39.23-1.83.16-.21-.06-.43-.12-.53-.24a1.13 1.13 0 0 1-.34-.46 1.75 1.75 0 0 1-.16-.6l.63-.28c0 .14.09.34.2.6.02.1.1.17.17.23.07.07.16.1.29.13.78.16 2.14-.12 4.03-.85l.62-.25-.25-.94.41-.16 1.72 4.54-.41.17-.37-.7-4.9 1.86.2.79-.4.12-.9-2.45.4-.12.38.8 4.9-1.86-.58-1.58-.71.27c-.95.43-1.8.67-2.57.82ZM310.56 129.7l-.14-.68.4-.13 1.34 4.08-1.2.51-.15-.45.69-.5-.61-2-2.26.72.47 1.32.71-.09.15.46-1.86.6-.15-.45.64-.34-.42-1.35-2.37.79.82 2.24 1.18.08v.5l-1.48.21-1.47-4.44.4-.12.29.63 5.02-1.6ZM312.71 136.38l-.46-1.36-1.8.2-.13-.53 2.2-.47 1.44 5.06-2.17.71-.14-.5 1.63-.75-.36-1.43-5.1 1.43.23 1.17-.4.12-.87-3.08.4-.12.37 1.01 5.16-1.46ZM311.39 143.56l-.08-.4c-.1-.11-.32-.17-.62-.25-.3-.08-.66-.13-1.1-.2-.44-.07-.74-.16-.95-.21-.21-.06-.33-.14-.35-.23l-.25-1.13.39-.08.14.32c.03.05.15.13.31.22.17.04.43.11.76.25l1.03.27c.24.12.45.22.6.35.01-.41.15-.74.36-1 .26-.3.59-.5.97-.57.64-.15 1.17-.06 1.5.26.32.32.6.85.76 1.58.06.15.08.4.11.63.02.28.06.47.11.62l.28 1.18-.4.12-.28-.67-5.1 1.2.12.77-.38.04-.59-2.4.39-.09.25.76 2.17-.53-.15-.81Zm3.15-.12c-.03-.24-.06-.48-.1-.67a1.67 1.67 0 0 0-.49-.91c-.22-.2-.58-.2-1.03-.1-.44.11-.77.3-.93.58-.17.28-.22.63-.1 1.07.1.45.17.74.23.85l2.5-.62-.08-.2ZM315.53 148.15l-.31-1.41-1.81.07-.09-.53 2.23-.28 1.01 5.14-2.2.51-.09-.53 1.68-.6-.21-1.44-5.23.99.15 1.19-.4.08-.62-3.16.4-.08.3 1.05 5.19-1ZM311.3 156.02c.22-.45.56-.86 1-1.11.44-.3 1-.47 1.62-.58a3.3 3.3 0 0 1 1.7.18 3 3 0 0 1 1.87 2.43c.07.43.07.94 0 1.56l-.03.27-1.5.1-.08-.57 1.02-.37c.07-.07.11-.24.12-.43 0-.18.03-.45-.05-.7-.05-.33-.19-.64-.44-.9a2.17 2.17 0 0 0-1-.54 4.55 4.55 0 0 0-2.85.34c-.42.2-.72.45-.94.76-.22.3-.28.7-.24 1.08.06.3.08.53.18.7.05.14.16.26.26.38l.86.23-.01.55-1.23-.05c-.02-.1-.06-.3-.18-.51-.08-.2-.18-.37-.22-.56-.04-.2-.12-.4-.14-.68.01-.55.06-1.09.29-1.58ZM318.02 162.14l-.42.02-.19-.83-4.23.38 1.08.61 3.19 2.14.23-.03.03-.77.42-.03.2 2.3-.41.03-.15-.63-5.23.48-.01.73-.42.03-.2-2.35.42-.03.17.74 4.28-.37-1.05-.56-3.22-2.2-.28.02-.02.78-.42.02-.2-2.34.42-.03.14.68 5.23-.48.04-.68.42-.03.18 2.4ZM318.6 171.29l-2.2.15-.03-.56 1.7-.33-.02-1.84-5.3.23-.02 1.47-.42.02-.17-3.3.42-.03.13.9 5.2-.25.06-.9.43-.03.22 4.47ZM318.11 172.76l.09-.66.4.02v2.29l-.42-.02-.08-.71h-2.25l-.02 2.97h2.25l.09-.66.4.02v2.25l-.4-.02-.1-.67-5.24.02-.09.67-.4-.02v-2.25l.4.02.09.71h2.43l.02-2.97h-2.43l-.1.7-.4-.02-.03-2.3.4.02.1.67 5.3-.06ZM318.58 181.3l-.01.9-5.9 1.78-.09.52-.4-.01.08-2.23.41.02.04.7 1.3-.34.1-2.46-1.21-.46-.1.71-.4-.02.07-2 .4.02.05.52 5.66 2.34Zm-1.37.5.73-.17-.76-.25-2.67-1-.1 2.13 2.8-.71ZM314.24 186.88c-.77-.2-1.32-.4-1.7-.69-.19-.14-.34-.27-.39-.42-.1-.17-.09-.35-.09-.53.03-.27.03-.45.1-.57h.7c-.04.13-.05.35-.08.62-.02.09 0 .19.06.3.02.1.1.16.21.23.6.49 2 .81 4.01.99l.68.04.16-.97.41.02-.42 4.85-.41-.02-.02-.79-5.2-.47-.18.82-.4-.01.23-2.6.41.01v.88l5.2.47.13-1.7-.76-.07c-1.03-.1-1.91-.24-2.65-.4ZM314.98 194.05c-.09.67-.32 1.2-.73 1.5-.36.32-.84.42-1.42.36a1.87 1.87 0 0 1-1.38-.83 2.43 2.43 0 0 1-.29-1.68.58.58 0 0 0 .03-.27c-.02-.1.04-.17.08-.3.08-.3.12-.61.19-.87l.16-1.15.4.06-.01.73 5.21.76.23-.67.4.06-.37 2.38-.4-.06-.04-.84-1.94-.3-.12 1.12Zm-3.26-1.2c-.02.1-.07.27-.07.45-.09.48 0 .83.25 1.12.24.3.56.47 1.05.51.44.08.83 0 1.07-.22.29-.2.42-.53.5-1l.14-.84-2.84-.4-.1.39Zm4.93 6.8-.4-.07.03-.77-5.18-.75-.2.78-.4-.06.33-2.44.4.06-.02.77 5.17.75.2-.77.4.06-.33 2.43ZM315.38 203.34l.26-.62.39.1-.51 2.26-.39-.1.06-.73-2.21-.5-.64 2.9 2.2.5.26-.61.39.1-.5 2.21-.39-.1.05-.68-5.13-1.1-.21.63-.39-.1.5-2.2.39.1-.05.67 2.4.5.63-2.9-2.38-.5-.24.72-.39-.1.51-2.26.39.1-.05.68 5.05 1.03ZM314.02 211.7l-.24.9-6.12.56-.23.5-.38-.1.53-2.16.38.1-.1.7 1.3-.05.6-2.37-1.11-.67-.27.67-.38-.1.47-1.95.38.1-.05.54 5.22 3.33Zm-1.43.17.79-.02-.68-.37-2.4-1.47-.52 2.07 2.81-.21ZM311.53 218.42l.4-.85.38.15-.7 2.1-3.97-.1-1.08-.06.94.58 3.24 2.33-.7 2.11-.38-.15.2-.9-5.2-1.03-.3.65-.38-.15.76-2.32.38.15-.16.74 3.72.86 1.61.34-1.04-.74-3.72-2.74.18-.5h4.27l1.69.03-1.52-.68-3.49-1.53-.35.78-.37-.15.7-2.06.37.14-.14.7 4.66 2.3Z" fill="#313131"/><path d="m308.85 227.72-.32.87-6.14-.22-.26.44-.37-.15.83-2.07.37.14-.18.69 1.31.08.89-2.3-1.02-.81-.35.63-.38-.14.73-1.87.38.14-.1.53 4.61 4.03Zm-1.46-.03.76.07-.61-.44-2.19-1.78-.76 2 2.8.15ZM306.57 231.79l.37-.55.38.15-.46 1.03c-.1.2-.15.37-.24.53-.12.29-.19.54-.3.79-.33.74-.69 1.2-1.1 1.4a1.8 1.8 0 0 1-1.46-.07 2.3 2.3 0 0 1-.94-.75 2.05 2.05 0 0 1-.35-1.1c-.03-.43.09-.86.29-1.26.09-.16.12-.29.21-.45.09-.16.11-.25.17-.28l-1.7-.72-.54 1-.37-.15 1.13-2.5.37.15-.22.67 4.76 2.1Zm-3.4.37c-.2.4-.21.77-.1 1.17.13.4.47.67 1.05.92.45.21.81.22 1.07.1.32-.14.54-.45.75-.9.09-.16.13-.33.2-.54l.06-.26-2.76-1.2c-.03.13-.14.38-.28.7ZM299.15 234.99c.43-.26.93-.4 1.43-.4.55 0 1.11.16 1.68.45.56.29 1.02.64 1.31 1.08.34.46.48.96.52 1.48.05.51-.05 1.04-.32 1.56-.2.4-.5.83-.87 1.33l-.15.23-1.32-.72.22-.49 1.07.29c.1-.02.22-.13.35-.27.13-.15.23-.35.39-.59.18-.32.21-.63.13-1.02a2.21 2.21 0 0 0-.5-1c-.3-.31-.67-.6-1.2-.88-.49-.22-.95-.39-1.39-.46a2.04 2.04 0 0 0-1.23.13c-.35.13-.6.39-.8.8-.13.28-.23.48-.23.67a.74.74 0 0 0 .01.46l.6.66-.3.43-1-.73.15-.51c.05-.22.06-.4.11-.61.05-.17.16-.42.27-.66.28-.53.62-.94 1.07-1.23ZM299.31 247.38l-.35-.23.35-.78-3.65-2.13.53 1.1 1.32 3.62.2.1.49-.6.35.23-1.17 1.98-.36-.23.26-.62-4.52-2.64-.43.58-.37-.2 1.19-2.02.36.2-.32.69 3.68 2.18-.55-1.02-1.31-3.66-.28-.17-.5.65-.36-.19 1.2-2.06.36.18-.27.67 4.53 2.63.42-.53.35.23-1.15 2.04ZM296.29 252.17c-.12.24-.17.46-.26.62l-.26.44c-.38.58-.76.98-1.18 1.15-.4.16-.82.15-1.21-.1-.4-.24-.58-.57-.66-.96-.08-.38-.03-.74.13-1.16-.3.43-.65.7-1.04.78-.39.08-.74.03-1.1-.2-.5-.32-.81-.72-.85-1.24-.06-.47.1-1.07.56-1.78.17-.27.37-.5.56-.72.19-.18.36-.31.48-.42.12-.1.19-.18.23-.17l1.14.9-.23.35-1.04-.41c-.27.16-.52.41-.82.84-.22.3-.26.62-.2.9.06.3.31.55.7.8.28.16.58.24.92.2.33-.06.63-.3.87-.7l.32-.5.4.24-.25.4c-.14.18-.2.4-.25.61-.02.23 0 .47.1.67.07.2.25.4.49.55a1 1 0 0 0 .87.18c.24-.07.48-.28.7-.59.15-.19.25-.39.25-.57.05-.18.04-.31-.02-.42l-.59-.57.3-.43 1.12.62c-.03.27-.11.43-.18.69ZM291.88 258.01l.5-.5.35.23-.66.92c-.13.15-.23.35-.4.63-.15.23-.24.4-.32.5-.44.63-.87 1.02-1.27 1.14-.4.12-.8.06-1.13-.22-.31-.21-.55-.5-.63-.9-.1-.34-.05-.7.1-1.07a2 2 0 0 1-1.05.82c-.38.08-.78.02-1.12-.26a1.8 1.8 0 0 1-.75-1.3c-.05-.52.18-1.19.74-1.91.13-.15.22-.31.35-.46.28-.34.43-.57.48-.6l.67-.93.35.23-.35.6 4.13 3.08Zm-5.38-1.71c-.35.45-.46.88-.46 1.2 0 .33.24.66.59.9.34.27.68.36.97.3.3-.06.59-.3.88-.68.35-.46.52-.78.6-.9l-2.04-1.46c-.05.03-.25.25-.54.64Zm2.73 1.46-.28.38c-.22.31-.3.61-.24.9.06.3.25.58.56.8.31.22.61.3.9.28.24-.07.52-.27.82-.7.13-.14.23-.34.32-.5l.09-.16-1.88-1.38c-.02.08-.14.2-.29.38ZM287.92 264.2l-.56.73-5.84-2.03-.37.36-.34-.27 1.38-1.74.34.27-.38.59 1.2.46 1.53-1.93-.72-1.07-.5.5-.35-.27 1.25-1.55.34.28-.27.48 3.29 5.2Zm-1.4-.46.72.28-.48-.63-1.57-2.35-1.32 1.67 2.66 1.03ZM280.1 264.27c.5-.14 1-.15 1.52-.01.51.14 1.02.46 1.5.87.5.4.83.86 1.02 1.37a2.93 2.93 0 0 1-.57 2.97 8 8 0 0 1-1.16 1.06l-.23.17-1.08-1.07.38-.4.96.53c.1-.02.25-.07.42-.2.16-.1.35-.28.5-.52.26-.25.39-.58.4-.95.05-.35-.05-.7-.26-1.08a3.59 3.59 0 0 0-.94-1.12c-.42-.34-.8-.63-1.22-.78a2.63 2.63 0 0 0-1.19-.19c-.38.04-.7.23-.97.57-.2.22-.35.41-.4.58-.08.16-.07.3-.1.43l.38.8-.42.34-.75-.94c.06-.07.15-.23.26-.48l.28-.52c.09-.16.23-.35.43-.57.28-.38.74-.72 1.24-.86ZM278.33 273.25c.15.5.16.96.05 1.39-.12.43-.32.83-.68 1.15-.38.4-.82.65-1.26.76a2.4 2.4 0 0 1-1.4-.1 4.47 4.47 0 0 1-1.37-.87 3.64 3.64 0 0 1-1.02-1.51 2.66 2.66 0 0 1 .52-2.8c.38-.4.82-.65 1.27-.8a2.4 2.4 0 0 1 1.4.1c.46.16.93.47 1.37.87l.96-.99-1.8-1.72-.57.44-.29-.3 1.6-1.69.3.27-.43.57 3.76 3.63.52-.41.29.3-1.59 1.64-.29-.3.43-.58-1.64-1.59-.95.99c.44.58.68 1.05.82 1.55Zm-.52.78a3.95 3.95 0 0 0-1.18-1.79 3.52 3.52 0 0 0-1.75-1.01c-.56-.11-1.06.03-1.45.43-.38.4-.5.83-.36 1.37.13.54.52 1.15 1.22 1.8.58.57 1.13.9 1.69 1.05.55.15 1 0 1.4-.4.38-.41.5-.88.43-1.45ZM270.1 278.12c-.36-.05-.83-.18-1.38-.33l-.9-.24c-.17-.05-.31-.04-.42.02l-.32.15-.28-.3.74-.73c.11-.06.26-.1.56-.03l1.16.31c.54.2.97.3 1.32.36.3.08.54.05.67-.1l.38-.36-1.64-1.77-.62.43-.29-.3 1.7-1.57.3.3-.47.53 3.56 3.84.57-.4.28.31-1.65 1.53-.28-.3.43-.58-1.64-1.77-.55.5.4 2.95.57-.4.29.31-1.53 1.43-.29-.31.42-.53-.34-3.03c-.07.12-.4.12-.75.07ZM265.92 278.65c.47-.06.95.02 1.39.28.5.22.9.6 1.31 1.08.43.49.7 1.02.83 1.56s.13 1.04-.04 1.5c-.17.46-.42.9-.84 1.25-.65.56-1.35.78-2.06.68-.71-.1-1.37-.55-2.05-1.28a3.66 3.66 0 0 1-.82-1.55 2.62 2.62 0 0 1 .05-1.55c.14-.51.42-.9.84-1.24a2.2 2.2 0 0 1 1.39-.73Zm2.95 3.87a3.66 3.66 0 0 0-1-1.88 3.88 3.88 0 0 0-1.66-1.22 1.4 1.4 0 0 0-1.44.25c-.41.35-.58.8-.5 1.38a4 4 0 0 0 1 1.92c.55.65 1.1 1.03 1.64 1.22.56.15 1.04.05 1.46-.3.41-.34.58-.8.5-1.38ZM264.96 286.51l.6-.34.27.35-.88.68c-.16.1-.34.28-.54.5-.19.18-.36.32-.47.38-.63.47-1.11.71-1.53.74-.42.02-.78-.17-1.06-.52-.24-.29-.37-.65-.37-1.01.01-.37.14-.7.4-1a1.8 1.8 0 0 1-1.23.5c-.4-.02-.77-.2-1.04-.56a1.87 1.87 0 0 1-.38-1.48c.09-.52.52-1.1 1.22-1.64.17-.14.33-.23.45-.34.35-.27.57-.4.64-.47l.87-.69.23.34-.5.5 3.32 4.06Zm-4.69-3.09c-.45.34-.69.7-.73 1.05-.05.35.04.7.31 1.04.28.35.55.52.86.56.32.04.63-.11 1.03-.42.46-.33.75-.57.83-.7l-1.53-1.96c-.18-.05-.4.12-.77.43Zm2.23 2.16-.35.28c-.3.24-.46.51-.5.82-.04.32.06.62.35.93.24.29.52.46.79.48.27.03.58-.12.98-.42.18-.14.31-.29.49-.43l.12-.1-1.44-1.85c-.15.05-.27.15-.44.3Z" fill="#313131"/><circle cx="78.06" cy="75.59" r=".9" fill="#313131" style="mix-blend-mode:overlay"/><circle cx="260.38" cy="64.03" r=".9" fill="#313131" style="mix-blend-mode:overlay"/></g></svg>